<?xml version="1.0" encoding="UTF-8"?>
<!DOCTYPE svg PUBLIC "-//W3C//DTD SVG 1.1//EN" "http://www.w3.org/Graphics/SVG/1.1/DTD/svg11.dtd">
<!-- Creator: CorelDRAW 2021.5 -->
<svg xmlns="http://www.w3.org/2000/svg" xml:space="preserve" width="28px" height="27px" version="1.1" style="shape-rendering:geometricPrecision; text-rendering:geometricPrecision; image-rendering:optimizeQuality; fill-rule:evenodd; clip-rule:evenodd"
viewBox="0 0 28 26.88"
 xmlns:xlink="http://www.w3.org/1999/xlink"
 xmlns:xodm="http://www.corel.com/coreldraw/odm/2003">
 <defs>
  <style type="text/css">
   <![CDATA[
    .fil0 {fill:#373435;fill-rule:nonzero}
   ]]>
  </style>
 </defs>
 <g id="Layer_x0020_1">
  <metadata id="CorelCorpID_0Corel-Layer"/>
  <g id="_2911961502512">
   <path class="fil0" d="M16.48 13.55c-1.77,0.29 -0.59,1.47 -0.3,2.36 -0.59,0.59 -2.06,1.76 -2.35,2.06 -0.3,0 -1.18,-1.18 -1.48,-1.47 -0.59,-0.59 -0.59,-0.59 -0.59,-0.89 0.89,-1.77 0.89,-1.77 -1.47,-2.35 -0.88,0 -1.77,-0.3 -2.36,-0.59l1.18 -2.95 0.88 -0.29c0.3,0 0.3,0.29 0.59,0.29l2.36 1.77c0.3,0.29 0.59,0.59 1.18,0.29 0.29,0 1.77,-0.88 2.06,-1.18 1.47,-0.88 1.18,-1.17 2.65,-1.17l1.18 3.53c-1.18,0 -2.36,0.3 -3.53,0.59l0 0 0 0zm5 2.94c0,0.3 -0.29,0.59 -0.59,0.89l-3.53 3.83c-0.29,0 -2.36,-2.06 -2.36,-2.36 0.59,-0.59 1.18,-0.88 2.07,-1.77 1.17,-1.17 0.58,-0.88 0.29,-2.35l3.24 -0.59c0.29,0.88 0.59,1.47 0.88,2.35l0 0 0 0zm-7.65 8.55c-0.3,-0.59 -2.07,-2.65 -2.36,-2.65 0.29,-0.3 2.06,-2.07 2.36,-2.36 0.29,0.29 2.35,2.06 2.35,2.36 -0.29,0.29 -2.06,2.35 -2.35,2.65zm-4.13 -4.72l-2.06 -2.35c-1.47,-1.77 -1.47,-1.18 -0.88,-2.65 0.29,-0.3 0.29,-0.89 0.59,-1.18l3.24 0.59c-0.3,1.47 -1.18,1.18 0.29,2.36 0.59,0.58 1.18,1.17 2.06,1.76 -0.29,0.3 -2.06,2.36 -2.35,2.36 -0.3,-0.3 -0.59,-0.59 -0.89,-0.89l0 0 0 0zm7.95 -12.07c-0.58,0 -1.17,0.29 -2.06,0.88 -0.29,0.3 -0.59,0.3 -0.88,0.59 0,0.29 -0.59,0.59 -0.88,0.59 -0.59,-0.3 -2.95,-2.06 -3.24,-2.06 -0.3,0 -1.48,0 -2.66,0 -0.88,2.35 -1.76,4.71 -2.94,7.36l-0.3 1.18 8.25 9.43c0.89,0.88 1.18,0.88 2.06,0l8.25 -9.43c-1.18,-2.95 -2.06,-5.89 -3.24,-8.54 -0.88,0 -1.47,0 -2.36,0l0 0 0 0z"/>
   <path class="fil0" d="M3.81 9.72c0.88,-0.59 0.29,-1.18 -2.36,-4.71 -0.59,-0.89 -2.06,0 -1.17,0.88 2.35,3.54 2.65,4.71 3.53,3.83l0 0z"/>
   <path class="fil0" d="M23.84 8.84c-0.59,0.88 0.59,1.76 1.18,0.88 2.65,-3.83 3.53,-4.42 2.65,-5.01 -0.88,-0.59 -1.18,0.3 -3.83,4.13l0 0 0 0z"/>
   <path class="fil0" d="M12.06 5.01l1.77 -2.65 2.06 2.65 1.18 -0.89 0.58 1.77 -7.36 0 0.59 -1.77 1.18 0.89 0 0zm-5.89 4.42c0.29,-0.3 0.29,-0.89 0.29,-1.18l-1.18 -1.77c1.18,-0.29 2.36,-0.59 3.54,-0.88l-0.59 1.76 11.49 0 -0.59 -1.76c1.17,0.29 2.35,0.59 3.53,0.88l-1.18 1.77c-0.59,0.88 0.89,1.76 1.48,0.88 2.35,-3.24 1.47,-2.36 3.53,-5.3 0.59,-0.88 -0.88,-1.77 -1.47,-0.88l-1.47 2.06c-1.48,-0.59 -3.24,-0.89 -5.01,-1.18l-0.59 -2.06 -1.77 1.18 -2.35 -2.95 -2.07 2.95 -1.76 -1.18 -0.59 2.06c-1.77,0.29 -3.54,0.59 -5.31,1.18l-1.17 -2.06c-0.89,-0.89 -2.07,0 -1.48,0.88 4.13,6.18 3.83,6.18 4.72,5.6l0 0 0 0z"/>
  </g>
 </g>
</svg>
