<?xml version="1.0" encoding="UTF-8"?>
<!DOCTYPE svg PUBLIC "-//W3C//DTD SVG 1.1//EN" "http://www.w3.org/Graphics/SVG/1.1/DTD/svg11.dtd">
<!-- Creator: CorelDRAW 2021.5 -->
<svg xmlns="http://www.w3.org/2000/svg" xml:space="preserve" width="180px" height="78px" version="1.1" style="shape-rendering:geometricPrecision; text-rendering:geometricPrecision; image-rendering:optimizeQuality; fill-rule:evenodd; clip-rule:evenodd"
viewBox="0 0 305.68 132.46"
 xmlns:xlink="http://www.w3.org/1999/xlink"
 xmlns:xodm="http://www.corel.com/coreldraw/odm/2003">
 <defs>
  <style type="text/css">
   <![CDATA[
    .fil1 {fill:none}
    .fil0 {fill:#FEFEFE;fill-rule:nonzero}
   ]]>
  </style>
 </defs>
 <g id="Layer_x0020_1">
  <metadata id="CorelCorpID_0Corel-Layer"/>
  <g id="_2429655196080">
   <g>
    <g>
     <path class="fil0" d="M19.73 113.61c0,-3.02 -1.96,-4.79 -5.85,-4.79l-5.19 0 0 9.55 5.19 0c3.89,0 5.85,-1.77 5.85,-4.76zm6.45 0c0,6.14 -4.6,9.95 -11.95,9.95l-5.54 0 0 7.58 -6.37 0 0 -27.51 11.91 0c7.35,0 11.95,3.81 11.95,9.98z"/>
     <path class="fil0" d="M42.25 108.82l-5.19 0 0 9.59 5.19 0c3.89,0 5.86,-1.81 5.86,-4.8 0,-3.02 -1.97,-4.79 -5.86,-4.79zm5.98 22.32l-5.31 -7.66 -0.32 0 -5.54 0 0 7.66 -6.36 0 0 -27.51 11.9 0c7.35,0 11.95,3.81 11.95,9.98 0,4.13 -2.08,7.16 -5.66,8.69l6.17 8.84 -6.83 0z"/>
     <path class="fil0" d="M81.51 117.39c0,-5.23 -3.69,-8.81 -8.61,-8.81 -4.91,0 -8.6,3.58 -8.6,8.81 0,5.22 3.69,8.8 8.6,8.8 4.92,0 8.61,-3.58 8.61,-8.8zm-23.66 0c0,-8.18 6.37,-14.23 15.05,-14.23 8.65,0 15.06,6.01 15.06,14.23 0,8.21 -6.41,14.22 -15.06,14.22 -8.68,0 -15.05,-6.05 -15.05,-14.22z"/>
     <polygon class="fil0" points="117.79,131.14 117.75,114.64 109.65,128.23 106.78,128.23 98.73,114.99 98.73,131.14 92.75,131.14 92.75,103.63 98.02,103.63 108.31,120.73 118.45,103.63 123.68,103.63 123.76,131.14 "/>
     <g>
      <polygon class="fil0" points="146.02,108.91 146.02,116.43 159.19,116.43 159.19,121.72 146.02,121.72 146.02,132.08 139.44,132.08 139.44,103.63 160.94,103.63 160.94,108.91 "/>
      <polygon class="fil0" points="165.41,103.63 172,103.63 172,132.08 165.41,132.08 "/>
      <polygon class="fil0" points="184.64,108.99 175.53,108.99 175.53,103.63 200.33,103.63 200.33,108.99 191.22,108.99 191.22,132.08 184.64,132.08 "/>
      <polygon class="fil0" points="221.95,108.91 221.95,116.43 235.12,116.43 235.12,121.72 221.95,121.72 221.95,132.08 215.36,132.08 215.36,103.63 236.87,103.63 236.87,108.91 "/>
      <path class="fil0" d="M256.82 120.99l-4.51 -10.9 -4.51 10.9 9.02 0zm2.08 5l-13.21 0 -2.52 6.09 -6.75 0 12.68 -28.45 6.5 0 12.73 28.45 -6.91 0 -2.52 -6.09z"/>
      <polygon class="fil0" points="297.18,132.08 297.14,115.01 288.77,129.07 285.8,129.07 277.47,115.38 277.47,132.08 271.29,132.08 271.29,103.63 276.74,103.63 287.39,121.31 297.88,103.63 303.28,103.63 303.36,132.08 "/>
     </g>
    </g>
    <g>
     <path class="fil0" d="M161.38 45.71c-6.23,1.15 -1.73,4.85 -1.4,8.28 -1.24,1.21 -6.1,6.07 -7.16,6.64 -1.07,-0.52 -4.28,-3.94 -5.44,-5.01 -2.04,-1.85 -1.95,-1.46 -1.43,-2.77 2.6,-6.56 2.48,-6.33 -4.94,-7.78 -2.94,-0.58 -5.92,-1.07 -8.81,-1.75l4.15 -10.81 2.82 -0.08c1.26,0 1.38,0.3 2.2,0.87l8.35 5.51c1.02,0.66 2.11,1.82 3.82,1.4 0.84,-0.2 5.68,-3.61 6.8,-4.32 5.32,-3.39 3.71,-3.53 8.9,-3.47l4.13 10.91c-3.72,0.92 -8.1,1.66 -11.99,2.38zm16.61 9.47c0.36,1.13 -1.06,2.22 -1.79,3.03l-11.91 13.23c-0.8,-0.28 -7.43,-6.65 -7.82,-7.48 2.34,-2.01 4.21,-3.83 6.37,-5.9 4.6,-4.39 2.17,-3.36 1.24,-8.03l11.14 -2.14c0.69,2.36 2.02,4.89 2.77,7.29zm-25.17 29.01c-1.84,-1.9 -7.76,-8.43 -7.99,-8.93 1.03,-1.27 6.77,-6.86 7.99,-7.59 0.97,0.62 7.17,6.56 7.91,7.59 -1.06,1.3 -6.97,7.87 -7.91,8.93zm-13.97 -15.45l-7.15 -8.02c-5.13,-5.59 -4.7,-3.96 -2.64,-9.23 0.41,-1.02 1.1,-2.55 1.36,-3.68l11.12 2.22c-0.94,4.77 -3.42,3.58 1.24,8.04 2.04,1.95 4.01,3.91 6.38,5.89 -0.29,0.62 -6.82,7.12 -7.82,7.48 -0.97,-0.9 -1.6,-1.74 -2.49,-2.7zm26.74 -41.04c-2.49,0.02 -4.22,1.75 -6.75,3.39 -1.08,0.7 -1.96,1.3 -3.04,2 -0.87,0.56 -2.09,1.5 -2.98,1.88 -2.23,-0.91 -9.8,-7 -11.7,-7.23 -0.77,-0.09 -4.53,-0.11 -8.6,-0.09 -3.07,8.24 -6.12,16.5 -9.32,24.91l-1.59 4.26 27.91 31.25c2.59,2.9 4.23,2.67 6.71,-0.11l27.84 -31.16c-3.7,-9.74 -7.34,-19.46 -11.03,-29.13 -2.49,0 -4.97,0 -7.45,0.03z"/>
     <path class="fil0" d="M119.19 33.38c2.92,-2.17 0.35,-4.25 -8.25,-16.61 -2.06,-2.98 -6.43,0.26 -4.35,3.21 8.61,12.41 9.68,15.55 12.6,13.4z"/>
     <path class="fil0" d="M185.87 29.52c-2.04,3 2.29,6.19 4.37,3.22 8.68,-12.51 11.15,-14.47 8.24,-16.61 -2.89,-2.15 -3.95,0.96 -12.61,13.39z"/>
     <path class="fil0" d="M146.63 17.06l6.21 -8.39 6.21 8.39 4.49 -3.1 1.98 5.89 -25.36 0 1.98 -5.89 4.49 3.1zm-19.92 14.96c1.23,-0.91 1.5,-2.7 0.63,-3.96l-3.81 -5.8c3.84,-1.3 7.73,-2.33 11.66,-3.11l-1.89 5.63 39.08 0 -1.89 -5.63c3.93,0.78 7.82,1.81 11.65,3.11l-3.81 5.8c-2.1,3.05 2.35,6.34 4.48,3.3 7.77,-11.19 5.3,-8.31 11.87,-17.76 2.11,-3.05 -2.34,-6.34 -4.47,-3.31l-4.72 7.15c-5.58,-2.01 -11.29,-3.47 -17.06,-4.41l-2.3 -6.84 -5.95 4.1 -7.34 -9.91 -7.34 9.91 -5.95 -4.1 -2.3 6.83c-5.77,0.95 -11.48,2.41 -17.05,4.42l-4.73 -7.15c-2.13,-3.03 -6.58,0.25 -4.47,3.31 13.88,19.97 12.7,20.6 15.71,18.42z"/>
    </g>
   </g>
   <rect class="fil1" width="305.68" height="132.46"/>
  </g>
 </g>
</svg>
