<?xml version="1.0" encoding="UTF-8"?>
<!DOCTYPE svg PUBLIC "-//W3C//DTD SVG 1.1//EN" "http://www.w3.org/Graphics/SVG/1.1/DTD/svg11.dtd">
<!-- Creator: CorelDRAW 2021.5 -->
<svg xmlns="http://www.w3.org/2000/svg" xml:space="preserve" width="230px" height="46px" version="1.1" style="shape-rendering:geometricPrecision; text-rendering:geometricPrecision; image-rendering:optimizeQuality; fill-rule:evenodd; clip-rule:evenodd"
viewBox="0 0 219.54 43.91"
 xmlns:xlink="http://www.w3.org/1999/xlink"
 xmlns:xodm="http://www.corel.com/coreldraw/odm/2003">
 <defs>
  <style type="text/css">
   <![CDATA[
    .fil1 {fill:none}
    .fil0 {fill:#FEFEFE;fill-rule:nonzero}
   ]]>
  </style>
 </defs>
 <g id="Layer_x0020_1">
  <metadata id="CorelCorpID_0Corel-Layer"/>
  <g id="_2429955141824">
   <g>
    <g>
     <path class="fil0" d="M39.53 22.16c-2.96,0.55 -0.83,2.3 -0.67,3.93 -0.58,0.57 -2.88,2.87 -3.39,3.14 -0.5,-0.25 -2.03,-1.87 -2.58,-2.37 -0.96,-0.88 -0.92,-0.7 -0.67,-1.32 1.23,-3.1 1.17,-2.99 -2.34,-3.68 -1.39,-0.27 -2.8,-0.51 -4.17,-0.83l1.96 -5.12 1.34 -0.04c0.6,0 0.65,0.15 1.04,0.42l3.95 2.61c0.48,0.31 1,0.86 1.81,0.66 0.4,-0.1 2.69,-1.71 3.22,-2.05 2.52,-1.6 1.76,-1.67 4.21,-1.64l1.96 5.17c-1.76,0.43 -3.83,0.78 -5.67,1.12zm7.86 4.49c0.17,0.53 -0.5,1.05 -0.85,1.43l-5.64 6.27c-0.38,-0.13 -3.52,-3.15 -3.7,-3.54 1.11,-0.96 1.99,-1.82 3.01,-2.8 2.19,-2.08 1.04,-1.59 0.59,-3.8l5.28 -1.01c0.33,1.11 0.95,2.31 1.31,3.45zm-11.92 13.73c-0.87,-0.9 -3.68,-3.99 -3.78,-4.22 0.49,-0.61 3.2,-3.25 3.78,-3.6 0.46,0.29 3.39,3.11 3.75,3.6 -0.51,0.61 -3.3,3.72 -3.75,4.22zm-6.61 -7.31l-3.39 -3.8c-2.43,-2.65 -2.23,-1.87 -1.25,-4.37 0.19,-0.48 0.52,-1.21 0.65,-1.74l5.26 1.05c-0.44,2.26 -1.62,1.7 0.59,3.81 0.96,0.92 1.9,1.85 3.02,2.79 -0.14,0.29 -3.23,3.36 -3.71,3.53 -0.45,-0.42 -0.75,-0.82 -1.17,-1.27zm12.66 -19.43c-1.18,0.01 -2,0.83 -3.2,1.6 -0.51,0.33 -0.93,0.62 -1.44,0.95 -0.41,0.26 -0.99,0.71 -1.41,0.89 -1.06,-0.43 -4.64,-3.32 -5.54,-3.43 -0.36,-0.04 -2.14,-0.04 -4.07,-0.04 -1.45,3.9 -2.9,7.82 -4.41,11.8l-0.76 2.02 13.22 14.79c1.23,1.38 2,1.27 3.18,-0.05l13.18 -14.76c-1.75,-4.6 -3.48,-9.21 -5.22,-13.79 -1.18,0 -2.36,0 -3.53,0.02z"/>
     <path class="fil0" d="M19.55 16.33c1.38,-1.03 0.16,-2.02 -3.91,-7.87 -0.97,-1.41 -3.04,0.12 -2.06,1.52 4.08,5.88 4.58,7.36 5.97,6.35z"/>
     <path class="fil0" d="M51.12 14.5c-0.97,1.42 1.09,2.93 2.07,1.52 4.11,-5.92 5.28,-6.85 3.9,-7.86 -1.37,-1.02 -1.87,0.45 -5.97,6.34z"/>
     <path class="fil0" d="M32.54 8.6l2.94 -3.98 2.94 3.98 2.13 -1.47 0.93 2.79 -12 0 0.93 -2.79 2.13 1.47zm-9.43 7.08c0.58,-0.43 0.71,-1.27 0.3,-1.87l-1.8 -2.75c1.81,-0.62 3.65,-1.11 5.51,-1.47l-0.89 2.66 18.5 0 -0.89 -2.66c1.86,0.37 3.7,0.85 5.51,1.47l-1.8 2.75c-1,1.44 1.11,3 2.12,1.56 3.68,-5.3 2.51,-3.94 5.62,-8.41 1,-1.44 -1.11,-3 -2.12,-1.57l-2.23 3.39c-2.64,-0.95 -5.35,-1.64 -8.08,-2.09l-1.09 -3.24 -2.82 1.94 -3.47 -4.69 -3.47 4.69 -2.82 -1.94 -1.09 3.24c-2.73,0.44 -5.44,1.14 -8.08,2.09l-2.23 -3.39c-1.01,-1.43 -3.12,0.12 -2.12,1.57 6.57,9.46 6.01,9.75 7.44,8.72z"/>
    </g>
    <g>
     <path class="fil0" d="M71.92 20.49c0,-1.44 -0.93,-2.27 -2.77,-2.27l-2.46 0 0 4.52 2.46 0c1.84,0 2.77,-0.84 2.77,-2.25zm3.05 0c0,2.9 -2.18,4.7 -5.66,4.7l-2.62 0 0 3.6 -3.01 0 0 -13.03 5.63 0c3.48,0 5.66,1.8 5.66,4.73z"/>
     <path class="fil0" d="M82.58 18.22l-2.45 0 0 4.54 2.45 0c1.85,0 2.78,-0.86 2.78,-2.27 0,-1.44 -0.93,-2.27 -2.78,-2.27zm2.83 10.56l-2.51 -3.62 -0.15 0 -2.62 0 0 3.62 -3.02 0 0 -13.02 5.64 0c3.48,0 5.66,1.8 5.66,4.73 0,1.95 -0.99,3.38 -2.68,4.11l2.92 4.18 -3.24 0z"/>
     <path class="fil0" d="M101.17 22.27c0,-2.47 -1.75,-4.17 -4.07,-4.17 -2.33,0 -4.08,1.7 -4.08,4.17 0,2.48 1.75,4.17 4.08,4.17 2.32,0 4.07,-1.69 4.07,-4.17zm-11.2 0c0,-3.87 3.01,-6.73 7.13,-6.73 4.09,0 7.12,2.84 7.12,6.73 0,3.89 -3.03,6.74 -7.12,6.74 -4.12,0 -7.13,-2.87 -7.13,-6.74z"/>
     <polygon class="fil0" points="118.35,28.78 118.33,20.97 114.5,27.41 113.14,27.41 109.32,21.14 109.32,28.78 106.49,28.78 106.49,15.76 108.99,15.76 113.86,23.85 118.67,15.76 121.14,15.76 121.18,28.78 "/>
     <g>
      <polygon class="fil0" points="131.72,18.26 131.72,21.82 137.95,21.82 137.95,24.32 131.72,24.32 131.72,29.23 128.6,29.23 128.6,15.76 138.78,15.76 138.78,18.26 "/>
      <polygon class="fil0" points="140.9,15.76 144.02,15.76 144.02,29.23 140.9,29.23 "/>
      <polygon class="fil0" points="150,18.3 145.69,18.3 145.69,15.76 157.43,15.76 157.43,18.3 153.12,18.3 153.12,29.23 150,29.23 "/>
      <polygon class="fil0" points="167.67,18.26 167.67,21.82 173.9,21.82 173.9,24.32 167.67,24.32 167.67,29.23 164.55,29.23 164.55,15.76 174.73,15.76 174.73,18.26 "/>
      <path class="fil0" d="M184.18 23.98l-2.13 -5.16 -2.14 5.16 4.27 0zm0.98 2.36l-6.25 0 -1.19 2.89 -3.2 0 6.01 -13.47 3.07 0 6.03 13.47 -3.27 0 -1.2 -2.89z"/>
      <polygon class="fil0" points="203.29,29.23 203.27,21.15 199.31,27.81 197.9,27.81 193.96,21.32 193.96,29.23 191.03,29.23 191.03,15.76 193.61,15.76 198.66,24.13 203.62,15.76 206.18,15.76 206.22,29.23 "/>
     </g>
    </g>
   </g>
   <rect class="fil1" width="219.54" height="43.91"/>
  </g>
 </g>
</svg>
