<?xml version="1.0" encoding="UTF-8"?>
<!DOCTYPE svg PUBLIC "-//W3C//DTD SVG 1.1//EN" "http://www.w3.org/Graphics/SVG/1.1/DTD/svg11.dtd">
<!-- Creator: CorelDRAW 2021.5 -->
<svg xmlns="http://www.w3.org/2000/svg" xml:space="preserve" width="230px" height="52px" version="1.1" style="shape-rendering:geometricPrecision; text-rendering:geometricPrecision; image-rendering:optimizeQuality; fill-rule:evenodd; clip-rule:evenodd"
viewBox="0 0 62 13.98"
 xmlns:xlink="http://www.w3.org/1999/xlink"
 xmlns:xodm="http://www.corel.com/coreldraw/odm/2003">
 <defs>
  <style type="text/css">
   <![CDATA[
    .fil1 {fill:none;fill-rule:nonzero}
    .fil0 {fill:#FEFEFE;fill-rule:nonzero}
   ]]>
  </style>
 </defs>
 <g id="Layer_x0020_1">
  <metadata id="CorelCorpID_0Corel-Layer"/>
  <g id="_2429955141824">
   <g>
    <g>
     <path class="fil0" d="M8.63 7.06c-0.94,0.17 -0.26,0.73 -0.21,1.25 -0.19,0.18 -0.92,0.91 -1.08,1 -0.16,-0.08 -0.65,-0.6 -0.82,-0.76 -0.31,-0.28 -0.3,-0.22 -0.22,-0.42 0.39,-0.98 0.37,-0.95 -0.74,-1.17 -0.45,-0.08 -0.89,-0.16 -1.33,-0.26l0.62 -1.63 0.43 -0.02c0.19,0 0.21,0.05 0.33,0.14l1.26 0.83c0.15,0.1 0.32,0.27 0.58,0.21 0.12,-0.03 0.85,-0.55 1.02,-0.65 0.8,-0.51 0.56,-0.54 1.34,-0.53l0.63 1.65c-0.56,0.14 -1.22,0.25 -1.81,0.36l0 0zm2.5 1.43c0.06,0.17 -0.16,0.33 -0.27,0.45l-1.79 2c-0.13,-0.04 -1.13,-1 -1.18,-1.13 0.35,-0.3 0.63,-0.58 0.96,-0.89 0.69,-0.66 0.33,-0.51 0.18,-1.21l1.69 -0.32c0.1,0.35 0.3,0.73 0.41,1.1l0 0zm-3.79 4.37c-0.28,-0.29 -1.17,-1.27 -1.21,-1.34 0.16,-0.2 1.02,-1.04 1.21,-1.15 0.14,0.09 1.08,0.99 1.19,1.15 -0.16,0.19 -1.05,1.18 -1.19,1.34zm-2.11 -2.33l-1.08 -1.21c-0.77,-0.84 -0.71,-0.59 -0.4,-1.39 0.06,-0.15 0.17,-0.39 0.21,-0.55l1.68 0.33c-0.14,0.72 -0.52,0.54 0.18,1.21 0.31,0.3 0.61,0.59 0.97,0.89 -0.05,0.09 -1.03,1.07 -1.19,1.13 -0.14,-0.14 -0.23,-0.27 -0.37,-0.41l0 0zm4.03 -6.19c-0.37,0.01 -0.63,0.27 -1.02,0.51 -0.16,0.11 -0.29,0.2 -0.45,0.31 -0.13,0.08 -0.32,0.22 -0.45,0.28 -0.34,-0.14 -1.48,-1.06 -1.77,-1.09 -0.11,-0.02 -0.68,-0.02 -1.29,-0.02 -0.47,1.25 -0.93,2.49 -1.41,3.76l-0.24 0.65 4.21 4.7c0.39,0.44 0.64,0.41 1.01,-0.01l4.2 -4.7c-0.56,-1.47 -1.11,-2.93 -1.66,-4.39 -0.38,0 -0.75,0 -1.13,0l0 0z"/>
     <path class="fil0" d="M2.27 5.2c0.44,-0.33 0.05,-0.64 -1.25,-2.51 -0.31,-0.44 -0.97,0.04 -0.65,0.49 1.3,1.87 1.45,2.34 1.9,2.02l0 0z"/>
     <path class="fil0" d="M12.32 4.62c-0.31,0.45 0.35,0.93 0.66,0.48 1.31,-1.88 1.68,-2.18 1.24,-2.5 -0.43,-0.33 -0.59,0.14 -1.9,2.02l0 0z"/>
     <path class="fil0" d="M6.4 2.74l0.94 -1.27 0.94 1.27 0.67 -0.47 0.3 0.89 -3.82 0 0.3 -0.89 0.67 0.47 0 0zm-3 2.25c0.19,-0.13 0.23,-0.4 0.1,-0.59l-0.58 -0.88c0.58,-0.2 1.17,-0.35 1.76,-0.47l-0.29 0.85 5.9 0 -0.29 -0.85c0.59,0.12 1.18,0.27 1.76,0.47l-0.58 0.88c-0.31,0.46 0.36,0.95 0.68,0.49 1.17,-1.68 0.8,-1.25 1.79,-2.67 0.32,-0.46 -0.35,-0.96 -0.68,-0.5l-0.71 1.08c-0.84,-0.31 -1.7,-0.53 -2.57,-0.67l-0.35 -1.03 -0.89 0.62 -1.11 -1.5 -1.1 1.5 -0.9 -0.62 -0.35 1.03c-0.87,0.14 -1.73,0.36 -2.57,0.67l-0.71 -1.08c-0.32,-0.46 -1,0.03 -0.68,0.5 2.09,3.01 1.92,3.1 2.37,2.77l0 0z"/>
    </g>
    <g>
     <path class="fil0" d="M18.94 6.52c0,-0.45 -0.29,-0.72 -0.88,-0.72l-0.78 0 0 1.44 0.78 0c0.59,0 0.88,-0.27 0.88,-0.72zm0.98 0c0,0.93 -0.7,1.5 -1.81,1.5l-0.83 0 0 1.15 -0.96 0 0 -4.15 1.79 0c1.11,0 1.81,0.57 1.81,1.5l0 0z"/>
     <path class="fil0" d="M22.34 5.8l-0.78 0 0 1.45 0.78 0c0.59,0 0.88,-0.28 0.88,-0.73 0,-0.45 -0.29,-0.72 -0.88,-0.72zm0.9 3.36l-0.8 -1.15 -0.05 0 -0.83 0 0 1.15 -0.96 0 0 -4.14 1.79 0c1.11,0 1.81,0.57 1.81,1.5 0,0.63 -0.32,1.08 -0.86,1.31l0.93 1.33 -1.03 0z"/>
     <path class="fil0" d="M28.26 7.09c0,-0.78 -0.56,-1.33 -1.3,-1.33 -0.74,0 -1.3,0.55 -1.3,1.33 0,0.79 0.56,1.33 1.3,1.33 0.74,0 1.3,-0.54 1.3,-1.33zm-3.57 0c0,-1.23 0.96,-2.14 2.27,-2.14 1.31,0 2.27,0.9 2.27,2.14 0,1.24 -0.96,2.15 -2.27,2.15 -1.31,0 -2.27,-0.92 -2.27,-2.15z"/>
     <polygon class="fil0" points="33.73,9.16 33.72,6.68 32.5,8.73 32.07,8.73 30.85,6.73 30.85,9.16 29.95,9.16 29.95,5.02 30.75,5.02 32.3,7.6 33.83,5.02 34.62,5.02 34.63,9.16 "/>
     <g>
      <polygon class="fil0" points="37.99,5.81 37.99,6.95 39.97,6.95 39.97,7.74 37.99,7.74 37.99,9.31 36.99,9.31 36.99,5.02 40.24,5.02 40.24,5.81 "/>
      <polygon class="fil0" points="40.91,5.02 41.9,5.02 41.9,9.31 40.91,9.31 "/>
      <polygon class="fil0" points="43.81,5.83 42.44,5.83 42.44,5.02 46.17,5.02 46.17,5.83 44.8,5.83 44.8,9.31 43.81,9.31 "/>
      <polygon class="fil0" points="49.44,5.81 49.44,6.95 51.42,6.95 51.42,7.74 49.44,7.74 49.44,9.31 48.44,9.31 48.44,5.02 51.68,5.02 51.68,5.81 "/>
      <path class="fil0" d="M54.69 7.64l-0.67 -1.65 -0.69 1.65 1.36 0 0 0zm0.32 0.75l-1.99 0 -0.38 0.92 -1.02 0 1.91 -4.29 0.98 0 1.92 4.29 -1.04 0 -0.38 -0.92 0 0z"/>
      <polygon class="fil0" points="60.78,9.31 60.77,6.74 59.51,8.86 59.06,8.86 57.81,6.79 57.81,9.31 56.87,9.31 56.87,5.02 57.7,5.02 59.3,7.68 60.88,5.02 61.7,5.02 61.71,9.31 "/>
     </g>
    </g>
   </g>
   <rect class="fil1" width="62" height="13.98"/>
  </g>
 </g>
</svg>
