<?xml version="1.0" encoding="UTF-8"?>
<!DOCTYPE svg PUBLIC "-//W3C//DTD SVG 1.1//EN" "http://www.w3.org/Graphics/SVG/1.1/DTD/svg11.dtd">
<!-- Creator: CorelDRAW 2021.5 -->
<svg xmlns="http://www.w3.org/2000/svg" xml:space="preserve" width="180px" height="41px" version="1.1" style="shape-rendering:geometricPrecision; text-rendering:geometricPrecision; image-rendering:optimizeQuality; fill-rule:evenodd; clip-rule:evenodd"
viewBox="0 0 40.33 9.1"
 xmlns:xlink="http://www.w3.org/1999/xlink"
 xmlns:xodm="http://www.corel.com/coreldraw/odm/2003">
 <defs>
  <style type="text/css">
   <![CDATA[
    .fil1 {fill:none;fill-rule:nonzero}
    .fil0 {fill:#FEFEFE;fill-rule:nonzero}
   ]]>
  </style>
 </defs>
 <g id="Layer_x0020_1">
  <metadata id="CorelCorpID_0Corel-Layer"/>
  <g id="_2429955141824">
   <g>
    <g>
     <path class="fil0" d="M5.61 4.59c-0.61,0.12 -0.17,0.48 -0.13,0.82 -0.12,0.11 -0.6,0.59 -0.71,0.65 -0.1,-0.06 -0.42,-0.39 -0.53,-0.5 -0.2,-0.18 -0.19,-0.14 -0.14,-0.27 0.25,-0.64 0.24,-0.62 -0.48,-0.76 -0.29,-0.06 -0.58,-0.11 -0.87,-0.17l0.41 -1.06 0.28 -0.01c0.12,0 0.13,0.03 0.21,0.08l0.82 0.55c0.1,0.06 0.21,0.17 0.37,0.13 0.09,-0.02 0.56,-0.35 0.67,-0.42 0.52,-0.33 0.37,-0.35 0.87,-0.34l0.41 1.07c-0.37,0.09 -0.79,0.16 -1.18,0.23l0 0zm1.63 0.93c0.04,0.11 -0.1,0.22 -0.17,0.3l-1.17 1.3c-0.08,-0.03 -0.73,-0.66 -0.77,-0.74 0.23,-0.2 0.41,-0.37 0.63,-0.58 0.45,-0.43 0.21,-0.33 0.12,-0.78l1.09 -0.21c0.07,0.23 0.2,0.48 0.27,0.71l0 0zm-2.47 2.85c-0.18,-0.19 -0.76,-0.83 -0.78,-0.88 0.1,-0.12 0.66,-0.67 0.78,-0.74 0.1,0.06 0.71,0.64 0.78,0.74 -0.11,0.13 -0.68,0.77 -0.78,0.88zm-1.37 -1.52l-0.7 -0.79c-0.5,-0.54 -0.46,-0.38 -0.26,-0.9 0.04,-0.1 0.11,-0.25 0.14,-0.36l1.09 0.22c-0.09,0.46 -0.34,0.35 0.12,0.79 0.2,0.19 0.39,0.38 0.62,0.57 -0.02,0.06 -0.66,0.7 -0.76,0.73 -0.1,-0.08 -0.16,-0.17 -0.25,-0.26l0 0zm2.63 -4.02c-0.25,0 -0.42,0.17 -0.67,0.33 -0.1,0.07 -0.19,0.13 -0.29,0.19 -0.09,0.06 -0.21,0.15 -0.3,0.19 -0.22,-0.09 -0.96,-0.69 -1.14,-0.71 -0.08,-0.01 -0.45,-0.01 -0.85,-0.01 -0.3,0.81 -0.6,1.62 -0.91,2.44l-0.16 0.42 2.74 3.07c0.25,0.28 0.41,0.26 0.66,-0.01l2.73 -3.06c-0.36,-0.95 -0.72,-1.91 -1.08,-2.86 -0.25,0 -0.49,0 -0.73,0.01l0 0z"/>
     <path class="fil0" d="M1.47 3.38c0.29,-0.21 0.04,-0.42 -0.81,-1.63 -0.2,-0.29 -0.63,0.03 -0.42,0.32 0.84,1.22 0.95,1.52 1.23,1.31l0 0z"/>
     <path class="fil0" d="M8.02 3c-0.21,0.3 0.22,0.61 0.42,0.32 0.86,-1.23 1.1,-1.42 0.81,-1.63 -0.28,-0.21 -0.38,0.09 -1.23,1.31l0 0z"/>
     <path class="fil0" d="M4.17 1.78l0.61 -0.82 0.6 0.82 0.45 -0.3 0.19 0.58 -2.49 0 0.2 -0.58 0.44 0.3 0 0zm-1.96 1.47c0.12,-0.09 0.15,-0.26 0.06,-0.39l-0.37 -0.57c0.38,-0.13 0.76,-0.23 1.14,-0.3l-0.18 0.55 3.83 0 -0.18 -0.55c0.38,0.07 0.76,0.17 1.14,0.3l-0.37 0.57c-0.21,0.3 0.23,0.62 0.44,0.32 0.76,-1.09 0.52,-0.81 1.16,-1.74 0.21,-0.3 -0.23,-0.62 -0.44,-0.32l-0.46 0.7c-0.55,-0.2 -1.11,-0.34 -1.68,-0.43l-0.22 -0.68 -0.59 0.41 -0.71 -0.98 -0.72 0.98 -0.59 -0.41 -0.22 0.68c-0.57,0.09 -1.13,0.23 -1.68,0.43l-0.46 -0.7c-0.21,-0.3 -0.65,0.02 -0.44,0.32 1.36,1.96 1.25,2.02 1.54,1.81l0 0z"/>
    </g>
    <g>
     <path class="fil0" d="M12.33 4.25c0,-0.3 -0.2,-0.48 -0.58,-0.48l-0.51 0 0 0.94 0.51 0c0.38,0 0.58,-0.17 0.58,-0.46zm0.63 0c0,0.6 -0.45,0.97 -1.18,0.97l-0.54 0 0 0.74 -0.62 0 0 -2.69 1.16 0c0.73,0 1.18,0.37 1.18,0.98l0 0z"/>
     <path class="fil0" d="M14.53 3.77l-0.5 0 0 0.95 0.5 0c0.39,0 0.58,-0.18 0.58,-0.47 0,-0.3 -0.19,-0.48 -0.58,-0.48zm0.59 2.19l-0.52 -0.75 -0.03 0 -0.54 0 0 0.75 -0.63 0 0 -2.69 1.17 0c0.72,0 1.17,0.37 1.17,0.98 0,0.4 -0.2,0.7 -0.55,0.85l0.6 0.86 -0.67 0z"/>
     <path class="fil0" d="M18.39 4.61c0,-0.51 -0.37,-0.86 -0.85,-0.86 -0.48,0 -0.84,0.35 -0.84,0.86 0,0.52 0.36,0.87 0.84,0.87 0.48,0 0.85,-0.35 0.85,-0.87zm-2.33 0c0,-0.8 0.63,-1.39 1.48,-1.39 0.85,0 1.48,0.59 1.48,1.39 0,0.81 -0.63,1.4 -1.48,1.4 -0.85,0 -1.48,-0.59 -1.48,-1.4z"/>
     <polygon class="fil0" points="21.94,5.96 21.94,4.34 21.15,5.68 20.87,5.68 20.07,4.38 20.07,5.96 19.49,5.96 19.49,3.27 20.01,3.27 21.01,4.94 22.01,3.27 22.52,3.27 22.53,5.96 "/>
     <g>
      <polygon class="fil0" points="24.71,3.78 24.71,4.52 26.01,4.52 26.01,5.04 24.71,5.04 24.71,6.06 24.07,6.06 24.07,3.27 26.18,3.27 26.18,3.78 "/>
      <polygon class="fil0" points="26.62,3.27 27.26,3.27 27.26,6.06 26.62,6.06 "/>
      <polygon class="fil0" points="28.5,3.79 27.61,3.79 27.61,3.27 30.04,3.27 30.04,3.79 29.15,3.79 29.15,6.06 28.5,6.06 "/>
      <polygon class="fil0" points="32.16,3.78 32.16,4.52 33.45,4.52 33.45,5.04 32.16,5.04 32.16,6.06 31.52,6.06 31.52,3.27 33.63,3.27 33.63,3.78 "/>
      <path class="fil0" d="M35.58 4.97l-0.44 -1.07 -0.44 1.07 0.88 0 0 0zm0.21 0.49l-1.3 0 -0.24 0.6 -0.67 0 1.25 -2.79 0.63 0 1.25 2.79 -0.67 0 -0.25 -0.6 0 0z"/>
      <polygon class="fil0" points="39.54,6.06 39.54,4.38 38.72,5.76 38.43,5.76 37.61,4.42 37.61,6.06 37,6.06 37,3.27 37.54,3.27 38.58,5 39.61,3.27 40.14,3.27 40.15,6.06 "/>
     </g>
    </g>
   </g>
   <rect class="fil1" width="40.33" height="9.1"/>
  </g>
 </g>
</svg>
